<svg width="50" height="49" viewBox="0 0 50 49" fill="none" xmlns="http://www.w3.org/2000/svg">
<g id="streamline:webcam-video-circle-solid">
<rect x="0.5" width="49" height="49" rx="24.5" fill="white"/>
<path id="Vector" fill-rule="evenodd" clip-rule="evenodd" d="M0.5 24.5C0.5 18.0022 3.08124 11.7705 7.67588 7.17588C12.2705 2.58124 18.5022 0 25 0C31.4978 0 37.7295 2.58124 42.3241 7.17588C46.9188 11.7705 49.5 18.0022 49.5 24.5C49.5 30.9978 46.9188 37.2295 42.3241 41.8241C37.7295 46.4188 31.4978 49 25 49C18.5022 49 12.2705 46.4188 7.67588 41.8241C3.08124 37.2295 0.5 30.9978 0.5 24.5ZM30.656 20.7305L35.9725 18.375C36.1157 18.3205 36.2701 18.3017 36.4223 18.3201C36.5744 18.3386 36.7198 18.3937 36.8459 18.4809C36.9719 18.568 37.0749 18.6846 37.1459 18.8204C37.2169 18.9562 37.2539 19.1072 37.2535 19.2605V29.7395C37.2544 29.8931 37.2179 30.0445 37.1472 30.1808C37.0764 30.3171 36.9735 30.4341 36.8473 30.5216C36.7211 30.6092 36.5756 30.6647 36.4231 30.6833C36.2707 30.7019 36.116 30.6831 35.9725 30.6285L30.6525 28.2695V31.0975C30.6516 31.5969 30.453 32.0757 30.1002 32.4292C29.7473 32.7827 29.2689 32.9822 28.7695 32.984H14.6295C14.1301 32.9822 13.6517 32.7827 13.2988 32.4292C12.946 32.0757 12.7474 31.5969 12.7465 31.0975V17.9025C12.7474 17.4025 12.9465 16.9232 13.3001 16.5696C13.6537 16.216 14.133 16.0169 14.633 16.016H28.773C29.2724 16.0178 29.7508 16.2173 30.1037 16.5708C30.4565 16.9243 30.6551 17.4031 30.656 17.9025V20.7305Z" fill="#273266"/>
</g>
</svg>
