<svg width="1152" height="1155" viewBox="0 0 1152 1155" fill="none" xmlns="http://www.w3.org/2000/svg">
<g opacity="0.4">
<path d="M594.683 667.227C644.096 656.936 675.832 608.431 665.568 558.889C655.303 509.346 606.924 477.528 557.512 487.819C508.099 498.111 476.363 546.616 486.627 596.158C496.892 645.7 545.271 677.519 594.683 667.227Z" stroke="url(#paint0_linear_29_44)" stroke-miterlimit="10"/>
<path d="M505.43 685.536C564.91 724.657 644.758 708.026 683.777 648.39C722.795 588.755 706.208 508.697 646.728 469.576C587.248 430.456 507.4 447.087 468.381 506.722C429.363 566.358 445.95 646.415 505.43 685.536Z" stroke="url(#paint1_linear_29_44)" stroke-miterlimit="10"/>
<path d="M612.039 750.995C707.595 731.093 768.966 637.293 749.116 541.488C729.266 445.682 635.711 384.15 540.156 404.052C444.6 423.954 383.229 517.754 403.079 613.559C422.929 709.365 516.484 770.897 612.039 750.995Z" stroke="url(#paint2_linear_29_44)" stroke-miterlimit="10"/>
<path d="M621.38 796.079C741.77 771.004 819.091 652.827 794.082 532.122C769.073 411.417 651.204 333.894 530.815 358.968C410.425 384.043 333.104 502.22 358.113 622.925C383.122 743.63 500.991 821.153 621.38 796.079Z" stroke="url(#paint3_linear_29_44)" stroke-miterlimit="10"/>
<path d="M416.172 821.957C550.799 910.502 731.527 872.86 819.841 737.882C908.155 602.903 870.612 421.701 735.986 333.156C601.359 244.611 420.631 282.253 332.316 417.231C244.002 552.21 281.546 733.412 416.172 821.957Z" stroke="url(#paint4_linear_29_44)" stroke-miterlimit="10"/>
<path d="M359.518 908.546C541.842 1028.46 786.602 977.485 906.205 794.684C1025.81 611.883 974.964 366.482 792.64 246.566C610.316 126.65 365.556 177.628 245.953 360.429C126.35 543.229 177.195 788.63 359.518 908.546Z" stroke="url(#paint5_linear_29_44)" stroke-miterlimit="10"/>
<path d="M312.661 980.163C534.434 1126.03 832.153 1064.02 977.635 841.663C1123.12 619.31 1061.27 320.812 839.497 174.949C617.724 29.0863 320.005 91.0945 174.523 313.448C29.0408 535.802 90.8872 834.3 312.661 980.163Z" stroke="url(#paint6_linear_29_44)" stroke-miterlimit="10"/>
<path d="M281.768 1027.38C529.55 1190.35 862.185 1121.07 1024.73 872.638C1187.27 624.208 1118.17 290.702 870.39 127.733C622.608 -35.2356 289.973 34.0447 127.43 282.475C-35.1139 530.906 33.9856 864.411 281.768 1027.38Z" stroke="url(#paint7_linear_29_44)" stroke-miterlimit="10"/>
<path d="M260.644 1059.49C526.144 1234.11 882.563 1159.88 1056.73 893.685C1230.9 627.491 1156.86 270.139 891.356 95.5171C625.856 -79.1048 269.437 -4.8707 95.2704 261.324C-78.8958 527.518 -4.85538 884.87 260.644 1059.49Z" stroke="url(#paint8_linear_29_44)" stroke-miterlimit="10"/>
</g>
<defs>
<linearGradient id="paint0_linear_29_44" x1="1091.5" y1="1022.67" x2="417.077" y2="467.944" gradientUnits="userSpaceOnUse">
<stop stop-color="white" stop-opacity="0"/>
<stop offset="1" stop-color="#273266"/>
</linearGradient>
<linearGradient id="paint1_linear_29_44" x1="1091.5" y1="1022.67" x2="417.077" y2="467.944" gradientUnits="userSpaceOnUse">
<stop stop-color="white" stop-opacity="0"/>
<stop offset="1" stop-color="#273266"/>
</linearGradient>
<linearGradient id="paint2_linear_29_44" x1="1091.5" y1="1022.67" x2="417.077" y2="467.944" gradientUnits="userSpaceOnUse">
<stop stop-color="white" stop-opacity="0"/>
<stop offset="1" stop-color="#273266"/>
</linearGradient>
<linearGradient id="paint3_linear_29_44" x1="1091.5" y1="1022.67" x2="417.077" y2="467.944" gradientUnits="userSpaceOnUse">
<stop stop-color="white" stop-opacity="0"/>
<stop offset="1" stop-color="#273266"/>
</linearGradient>
<linearGradient id="paint4_linear_29_44" x1="1091.5" y1="1022.67" x2="417.077" y2="467.944" gradientUnits="userSpaceOnUse">
<stop stop-color="white" stop-opacity="0"/>
<stop offset="1" stop-color="#273266"/>
</linearGradient>
<linearGradient id="paint5_linear_29_44" x1="1091.5" y1="1022.67" x2="417.077" y2="467.944" gradientUnits="userSpaceOnUse">
<stop stop-color="white" stop-opacity="0"/>
<stop offset="1" stop-color="#273266"/>
</linearGradient>
<linearGradient id="paint6_linear_29_44" x1="1091.5" y1="1022.67" x2="417.077" y2="467.944" gradientUnits="userSpaceOnUse">
<stop stop-color="white" stop-opacity="0"/>
<stop offset="1" stop-color="#273266"/>
</linearGradient>
<linearGradient id="paint7_linear_29_44" x1="1091.5" y1="1022.67" x2="417.077" y2="467.944" gradientUnits="userSpaceOnUse">
<stop stop-color="white" stop-opacity="0"/>
<stop offset="1" stop-color="#273266"/>
</linearGradient>
<linearGradient id="paint8_linear_29_44" x1="1091.5" y1="1022.67" x2="417.077" y2="467.944" gradientUnits="userSpaceOnUse">
<stop stop-color="white" stop-opacity="0"/>
<stop offset="1" stop-color="#273266"/>
</linearGradient>
</defs>
</svg>
