<svg width="164" height="36" viewBox="0 0 164 36" fill="none" xmlns="http://www.w3.org/2000/svg">
<path d="M123.098 11.2449C123.285 9.98783 122.923 9.01192 122.015 8.31721C121.106 7.6225 119.855 7.27515 118.261 7.27515C117.096 7.27515 116.027 7.45709 115.055 7.82099C114.091 8.18489 113.278 8.68524 112.617 9.32206C111.965 9.95888 111.529 10.6825 111.309 11.493C111.125 12.1712 111.135 12.7543 111.337 13.2422C111.549 13.7219 111.878 14.123 112.321 14.4456C112.768 14.7598 113.254 15.0203 113.781 15.2271C114.309 15.4256 114.801 15.5869 115.256 15.7109L117.741 16.4056C118.38 16.5793 119.077 16.8191 119.834 17.1252C120.599 17.4312 121.296 17.8488 121.924 18.3781C122.562 18.8991 123.024 19.569 123.307 20.3878C123.591 21.2066 123.571 22.2114 123.249 23.4024C122.877 24.7752 122.168 26.0158 121.122 27.124C120.085 28.2322 118.767 29.113 117.167 29.7664C115.577 30.4198 113.77 30.7464 111.748 30.7464C109.863 30.7464 108.31 30.4528 107.09 29.8656C105.878 29.2784 105.02 28.4597 104.516 27.4093C104.021 26.359 103.91 25.1391 104.184 23.7497H107.474C107.3 24.7091 107.419 25.503 107.831 26.1316C108.255 26.7519 108.875 27.215 109.691 27.521C110.519 27.8187 111.455 27.9676 112.501 27.9676C113.717 27.9676 114.862 27.7774 115.933 27.3969C117.006 27.0082 117.919 26.4707 118.67 25.7842C119.424 25.0895 119.927 24.279 120.178 23.3527C120.406 22.5092 120.348 21.8227 120.003 21.2934C119.658 20.7641 119.132 20.334 118.425 20.0032C117.717 19.6724 116.935 19.383 116.076 19.1348L113.079 18.2416C111.178 17.671 109.77 16.8564 108.858 15.7978C107.945 14.7391 107.72 13.3539 108.184 11.6419C108.57 10.2194 109.304 8.97884 110.388 7.92024C111.482 6.85336 112.786 6.02632 114.299 5.43913C115.823 4.84366 117.424 4.54593 119.104 4.54593C120.8 4.54593 122.229 4.83952 123.389 5.42672C124.552 6.00565 125.382 6.7996 125.88 7.80858C126.386 8.81757 126.487 9.96302 126.183 11.2449H123.098Z" fill="#273266"/>
<path d="M84.1422 30.2998H80.8005L97.3496 4.89328H100.64L103.421 30.2998H100.08L98.0085 8.91268H97.8029L84.1422 30.2998ZM88.065 20.3754H101.535L100.795 23.1046H87.3256L88.065 20.3754Z" fill="#273266"/>
<path d="M65.1759 30.2998L72.0597 4.89328H80.9539C83.0103 4.89328 84.6064 5.23236 85.7422 5.91053C86.8803 6.58043 87.6073 7.50258 87.9231 8.67697C88.239 9.85136 88.1942 11.187 87.7886 12.684C87.383 14.1809 86.7063 15.5083 85.7585 16.6661C84.8107 17.824 83.5917 18.7337 82.1015 19.3954C80.6135 20.0487 78.8498 20.3754 76.8105 20.3754H69.6129L70.3658 17.5966H77.4606C78.8658 17.5966 80.0506 17.3981 81.015 17.0011C81.988 16.6041 82.7659 16.0417 83.3487 15.3139C83.9423 14.5779 84.3769 13.7012 84.6525 12.684C84.9281 11.6667 84.9719 10.7776 84.7839 10.0168C84.5959 9.2559 84.1252 8.6687 83.3718 8.25518C82.6207 7.83339 81.5339 7.6225 80.1116 7.6225H74.5077L68.3634 30.2998H65.1759ZM80.6584 18.8867L84.0439 30.2998H80.3423L77.0596 18.8867H80.6584Z" fill="#273266"/>
<path d="M45.8187 30.2998L52.7025 4.89328H61.9051C63.7388 4.89328 65.1683 5.19928 66.1935 5.81129C67.2209 6.41503 67.887 7.22966 68.1918 8.25518C68.4989 9.27244 68.4843 10.4013 68.1482 11.6419C67.8524 12.7336 67.4068 13.6351 66.8114 14.3463C66.2245 15.0576 65.5495 15.6199 64.7862 16.0335C64.0315 16.447 63.2503 16.753 62.4425 16.9515L62.3753 17.1996C63.1673 17.2492 63.903 17.5221 64.5826 18.0183C65.2622 18.5146 65.7507 19.2258 66.0481 20.1521C66.3455 21.0784 66.3127 22.2114 65.9497 23.5512C65.6046 24.8249 64.9943 25.9703 64.1189 26.9876C63.2435 28.0048 62.0782 28.8112 60.623 29.4066C59.1678 30.0021 57.4034 30.2998 55.3298 30.2998H45.8187ZM49.7457 27.5706H56.0693C58.1515 27.5706 59.7349 27.1819 60.8195 26.4045C61.9149 25.6188 62.6139 24.6677 62.9164 23.5512C63.1495 22.6911 63.1375 21.8971 62.8806 21.1694C62.6259 20.4333 62.138 19.8461 61.4171 19.4078C60.6984 18.9612 59.7649 18.7379 58.6167 18.7379H52.1389L49.7457 27.5706ZM52.8649 16.0583H58.7772C59.7369 16.0583 60.6516 15.8763 61.5214 15.5124C62.3997 15.1485 63.1556 14.6358 63.789 13.9741C64.431 13.3125 64.8729 12.5351 65.115 11.6419C65.4175 10.5254 65.2713 9.57844 64.6765 8.80103C64.0839 8.01534 62.9137 7.6225 61.1657 7.6225H55.1505L52.8649 16.0583Z" fill="#273266"/>
<path d="M51.3745 4.89328L44.4907 30.2998H41.3032L48.187 4.89328H51.3745Z" fill="#273266"/>
<path d="M24.4979 30.2998L31.3816 4.89328H34.5691L28.4248 27.5706H40.6607L39.9213 30.2998H24.4979Z" fill="#273266"/>
<path fill-rule="evenodd" clip-rule="evenodd" d="M7.18122 7.74464C6.05046 7.74464 4.88682 8.6274 4.58217 9.71635L0.073537 25.8319C-0.231117 26.9208 0.438575 27.8036 1.56934 27.8036H18.3037C19.4344 27.8036 20.5981 26.9208 20.9027 25.8319L25.4113 9.71635C25.716 8.6274 25.0463 7.74464 23.9155 7.74464H7.18122ZM9.96485 19.3808L8.00088 23.734H11.4993L13.4633 19.3808H17.9736L19.5113 16.0201H14.9796L16.9473 11.6586H13.4488L11.4811 16.0201H6.97227L5.43452 19.3808H9.96485Z" fill="#273266"/>
</svg>
