<svg width="139" height="94" viewBox="0 0 139 94" fill="none" xmlns="http://www.w3.org/2000/svg">
<rect x="76.672" y="25.5005" width="11.1565" height="11.1565" rx="1.59379" fill="#646464"/>
<rect x="63.9218" y="25.5005" width="11.1565" height="11.1565" rx="1.59379" fill="#646464"/>
<rect x="63.9218" y="38.2509" width="11.1565" height="11.1565" rx="1.59379" fill="#646464"/>
<rect x="63.9218" y="12.7504" width="11.1565" height="11.1565" rx="1.59379" fill="#646464"/>
<path d="M63.9218 1.59383C63.9218 0.713603 64.6354 4.22025e-05 65.5156 4.22025e-05H73.4845C74.3648 4.22025e-05 75.0783 0.713605 75.0783 1.59383V9.56277C75.0783 10.443 74.3648 11.1566 73.4845 11.1566H65.5156C64.6354 11.1566 63.9218 10.443 63.9218 9.56277V1.59383Z" fill="#646464"/>
<path d="M76.6721 1.59379C76.6721 0.713561 77.3857 0 78.2659 0H86.2348C87.1151 0 87.8286 0.713563 87.8286 1.59379V9.56273C87.8286 10.4429 87.1151 11.1565 86.2348 11.1565H78.2659C77.3857 11.1565 76.6721 10.4429 76.6721 9.56272V1.59379Z" fill="#646464"/>
<rect x="51.1714" y="25.5005" width="11.1565" height="11.1565" rx="1.59379" fill="#646464"/>
<rect x="51.1714" y="38.2509" width="11.1565" height="11.1565" rx="1.59379" fill="#646464"/>
<rect x="51.1714" y="12.7504" width="11.1565" height="11.1565" rx="1.59379" fill="#646464"/>
<rect x="51.1714" width="11.1565" height="11.1565" rx="5.57826" fill="#646464"/>
<path d="M36.8484 54.7085V64.1111H34.8605V54.7085H36.8484ZM46.09 54.7085V64.1111H44.3729L40.2823 58.1932H40.2134V64.1111H38.2254V54.7085H39.9701L44.0286 60.6219H44.1112V54.7085H46.09ZM52.5746 57.4127C52.5379 57.0423 52.3802 56.7546 52.1017 56.5496C51.8232 56.3445 51.4452 56.2419 50.9677 56.2419C50.6433 56.2419 50.3693 56.2879 50.1459 56.3797C49.9225 56.4684 49.7511 56.5924 49.6317 56.7516C49.5154 56.9107 49.4572 57.0913 49.4572 57.2933C49.4511 57.4616 49.4863 57.6086 49.5628 57.7341C49.6424 57.8595 49.7511 57.9682 49.8888 58.06C50.0265 58.1488 50.1857 58.2268 50.3663 58.2942C50.5469 58.3584 50.7397 58.4135 50.9448 58.4594L51.7895 58.6615C52.1997 58.7533 52.5761 58.8757 52.9189 59.0287C53.2617 59.1818 53.5586 59.37 53.8096 59.5934C54.0606 59.8169 54.2549 60.0801 54.3927 60.3831C54.5335 60.6861 54.6054 61.0335 54.6084 61.4253C54.6054 62.0007 54.4585 62.4996 54.1677 62.922C53.88 63.3413 53.4637 63.6673 52.9189 63.8999C52.3772 64.1294 51.7237 64.2442 50.9585 64.2442C50.1995 64.2442 49.5383 64.1279 48.9752 63.8953C48.4151 63.6627 47.9774 63.3184 47.6621 62.8623C47.3499 62.4032 47.1862 61.8354 47.1709 61.159H49.0945C49.116 61.4743 49.2063 61.7375 49.3654 61.9487C49.5276 62.1568 49.7434 62.3144 50.0128 62.4216C50.2852 62.5256 50.5928 62.5777 50.9356 62.5777C51.2722 62.5777 51.5645 62.5287 51.8125 62.4307C52.0634 62.3328 52.2578 62.1966 52.3955 62.0221C52.5333 61.8477 52.6021 61.6472 52.6021 61.4207C52.6021 61.2095 52.5394 61.032 52.4139 60.8881C52.2915 60.7443 52.1109 60.6219 51.8722 60.5208C51.6365 60.4198 51.3472 60.328 51.0044 60.2454L49.9806 59.9883C49.1879 59.7955 48.562 59.494 48.1029 59.0838C47.6438 58.6737 47.4157 58.1212 47.4188 57.4265C47.4157 56.8572 47.5672 56.3598 47.8733 55.9343C48.1824 55.5089 48.6064 55.1768 49.145 54.9381C49.6837 54.6993 50.2959 54.58 50.9815 54.58C51.6793 54.58 52.2884 54.6993 52.8087 54.9381C53.3321 55.1768 53.7392 55.5089 54.03 55.9343C54.3207 56.3598 54.4707 56.8526 54.4799 57.4127H52.5746ZM55.3289 56.3475V54.7085H63.0511V56.3475H60.1725V64.1111H58.2075V56.3475H55.3289ZM66.0522 54.7085V64.1111H64.0643V54.7085H66.0522ZM67.0712 56.3475V54.7085H74.7934V56.3475H71.9148V64.1111H69.9498V56.3475H67.0712ZM81.6143 54.7085H83.6022V60.8147C83.6022 61.5003 83.4385 62.1002 83.111 62.6144C82.7865 63.1286 82.332 63.5295 81.7474 63.8173C81.1628 64.1019 80.4818 64.2442 79.7044 64.2442C78.9239 64.2442 78.2413 64.1019 77.6567 63.8173C77.0721 63.5295 76.6176 63.1286 76.2932 62.6144C75.9688 62.1002 75.8065 61.5003 75.8065 60.8147V54.7085H77.7945V60.6448C77.7945 61.0029 77.8725 61.3212 78.0286 61.5998C78.1878 61.8783 78.4112 62.0971 78.6989 62.2563C78.9866 62.4154 79.3218 62.495 79.7044 62.495C80.09 62.495 80.4252 62.4154 80.7098 62.2563C80.9975 62.0971 81.2194 61.8783 81.3755 61.5998C81.5347 61.3212 81.6143 61.0029 81.6143 60.6448V54.7085ZM84.6211 56.3475V54.7085H92.3433V56.3475H89.4647V64.1111H87.4997V56.3475H84.6211ZM101.568 59.4098C101.568 60.4351 101.373 61.3075 100.985 62.0267C100.599 62.746 100.072 63.2954 99.4053 63.6749C98.7411 64.0514 97.9943 64.2396 97.1648 64.2396C96.3292 64.2396 95.5793 64.0499 94.9152 63.6703C94.251 63.2908 93.7261 62.7414 93.3404 62.0221C92.9548 61.3029 92.7619 60.4321 92.7619 59.4098C92.7619 58.3845 92.9548 57.5122 93.3404 56.7929C93.7261 56.0736 94.251 55.5257 94.9152 55.1493C95.5793 54.7697 96.3292 54.58 97.1648 54.58C97.9943 54.58 98.7411 54.7697 99.4053 55.1493C100.072 55.5257 100.599 56.0736 100.985 56.7929C101.373 57.5122 101.568 58.3845 101.568 59.4098ZM99.5522 59.4098C99.5522 58.7456 99.4527 58.1855 99.2538 57.7295C99.0579 57.2734 98.7809 56.9276 98.4228 56.6919C98.0647 56.4562 97.6453 56.3384 97.1648 56.3384C96.6843 56.3384 96.265 56.4562 95.9068 56.6919C95.5487 56.9276 95.2702 57.2734 95.0713 57.7295C94.8754 58.1855 94.7774 58.7456 94.7774 59.4098C94.7774 60.074 94.8754 60.6341 95.0713 61.0901C95.2702 61.5462 95.5487 61.8921 95.9068 62.1277C96.265 62.3634 96.6843 62.4812 97.1648 62.4812C97.6453 62.4812 98.0647 62.3634 98.4228 62.1277C98.7809 61.8921 99.0579 61.5462 99.2538 61.0901C99.4527 60.6341 99.5522 60.074 99.5522 59.4098ZM41.9469 80.1111V70.7085H48.1725V72.3475H43.9349V74.588H47.7593V76.227H43.9349V80.1111H41.9469ZM49.2511 80.1111V70.7085H55.5868V72.3475H51.239V74.588H55.2608V76.227H51.239V78.4721H55.6051V80.1111H49.2511ZM60.2418 80.1111H56.9087V70.7085H60.2694C61.2151 70.7085 62.0293 70.8968 62.7118 71.2732C63.3944 71.6466 63.9193 72.1838 64.2866 72.8847C64.6569 73.5856 64.8421 74.4242 64.8421 75.4006C64.8421 76.3801 64.6569 77.2218 64.2866 77.9257C63.9193 78.6297 63.3913 79.1699 62.7026 79.5464C62.017 79.9228 61.1968 80.1111 60.2418 80.1111ZM58.8966 78.4078H60.1592C60.7468 78.4078 61.2411 78.3037 61.6421 78.0956C62.0461 77.8844 62.3491 77.5584 62.5511 77.1177C62.7562 76.6739 62.8587 76.1015 62.8587 75.4006C62.8587 74.7058 62.7562 74.1381 62.5511 73.6973C62.3491 73.2566 62.0476 72.9321 61.6467 72.724C61.2457 72.5159 60.7514 72.4118 60.1638 72.4118H58.8966V78.4078ZM66.0561 80.1111V70.7085H72.3918V72.3475H68.044V74.588H72.0658V76.227H68.044V78.4721H72.4102V80.1111H66.0561ZM73.7137 80.1111V70.7085H77.4233C78.1334 70.7085 78.7394 70.8355 79.2414 71.0896C79.7464 71.3406 80.1305 71.6971 80.3938 72.1593C80.6601 72.6184 80.7932 73.1586 80.7932 73.78C80.7932 74.4044 80.6585 74.9415 80.3892 75.3914C80.1198 75.8383 79.7296 76.1811 79.2185 76.4198C78.7104 76.6586 78.0952 76.7779 77.3728 76.7779H74.889V75.1802H77.0515C77.431 75.1802 77.7462 75.1282 77.9972 75.0242C78.2482 74.9201 78.4349 74.764 78.5573 74.5559C78.6828 74.3477 78.7456 74.0891 78.7456 73.78C78.7456 73.4678 78.6828 73.2045 78.5573 72.9903C78.4349 72.776 78.2467 72.6138 77.9926 72.5036C77.7416 72.3904 77.4249 72.3338 77.0423 72.3338H75.7017V80.1111H73.7137ZM78.7915 75.8322L81.1283 80.1111H78.9338L76.6474 75.8322H78.7915ZM83.5602 80.1111H81.4299L84.6758 70.7085H87.2376L90.4789 80.1111H88.3487L85.9934 72.8572H85.92L83.5602 80.1111ZM83.427 76.4153H88.4589V77.967H83.427V76.4153ZM91.3521 80.1111V70.7085H93.34V78.4721H97.371V80.1111H91.3521Z" fill="#646464"/>
<path d="M29.7305 87.5337H28.9765C28.9319 87.3168 28.8538 87.1263 28.7423 86.9621C28.6329 86.7979 28.4991 86.6601 28.341 86.5486C28.1849 86.4351 28.0116 86.3499 27.8211 86.2932C27.6305 86.2364 27.4319 86.208 27.2251 86.208C26.8481 86.208 26.5065 86.3033 26.2004 86.4938C25.8964 86.6844 25.6542 86.9651 25.4737 87.3361C25.2954 87.707 25.2062 88.1621 25.2062 88.7013C25.2062 89.2405 25.2954 89.6956 25.4737 90.0665C25.6542 90.4374 25.8964 90.7182 26.2004 90.9087C26.5065 91.0993 26.8481 91.1945 27.2251 91.1945C27.4319 91.1945 27.6305 91.1662 27.8211 91.1094C28.0116 91.0527 28.1849 90.9685 28.341 90.857C28.4991 90.7435 28.6329 90.6047 28.7423 90.4405C28.8538 90.2743 28.9319 90.0837 28.9765 89.8689H29.7305C29.6738 90.1871 29.5704 90.4719 29.4204 90.7233C29.2704 90.9746 29.0839 91.1885 28.8609 91.3648C28.638 91.5391 28.3876 91.6719 28.1099 91.7631C27.8342 91.8543 27.5393 91.9 27.2251 91.9C26.694 91.9 26.2217 91.7702 25.8082 91.5108C25.3947 91.2513 25.0694 90.8824 24.8322 90.404C24.595 89.9256 24.4764 89.3581 24.4764 88.7013C24.4764 88.0445 24.595 87.477 24.8322 86.9986C25.0694 86.5202 25.3947 86.1513 25.8082 85.8918C26.2217 85.6324 26.694 85.5026 27.2251 85.5026C27.5393 85.5026 27.8342 85.5482 28.1099 85.6395C28.3876 85.7307 28.638 85.8645 28.8609 86.0408C29.0839 86.2151 29.2704 86.428 29.4204 86.6793C29.5704 86.9286 29.6738 87.2134 29.7305 87.5337ZM32.0548 91.9243C31.7589 91.9243 31.4903 91.8685 31.2491 91.757C31.0079 91.6435 30.8163 91.4804 30.6744 91.2675C30.5325 91.0527 30.4616 90.7932 30.4616 90.4891C30.4616 90.2216 30.5143 90.0047 30.6197 89.8385C30.7251 89.6702 30.866 89.5385 31.0423 89.4432C31.2187 89.3479 31.4133 89.277 31.6261 89.2303C31.841 89.1817 32.0568 89.1432 32.2737 89.1148C32.5575 89.0783 32.7876 89.051 32.9639 89.0327C33.1423 89.0124 33.2721 88.979 33.3531 88.9324C33.4362 88.8858 33.4778 88.8047 33.4778 88.6891V88.6648C33.4778 88.3648 33.3957 88.1317 33.2315 87.9655C33.0694 87.7993 32.8231 87.7162 32.4927 87.7162C32.1501 87.7162 31.8815 87.7912 31.6869 87.9412C31.4923 88.0912 31.3555 88.2513 31.2764 88.4216L30.5954 88.1783C30.717 87.8945 30.8791 87.6736 31.0818 87.5155C31.2866 87.3553 31.5095 87.2439 31.7508 87.181C31.994 87.1161 32.2332 87.0837 32.4683 87.0837C32.6183 87.0837 32.7906 87.102 32.9852 87.1384C33.1819 87.1729 33.3714 87.2449 33.5538 87.3543C33.7383 87.4638 33.8913 87.629 34.0129 87.8499C34.1346 88.0709 34.1954 88.3668 34.1954 88.7378V91.8148H33.4778V91.1824H33.4413C33.3927 91.2837 33.3116 91.3922 33.1981 91.5077C33.0846 91.6233 32.9335 91.7216 32.745 91.8027C32.5565 91.8837 32.3264 91.9243 32.0548 91.9243ZM32.1643 91.2797C32.4481 91.2797 32.6873 91.2239 32.8818 91.1125C33.0785 91.001 33.2264 90.857 33.3258 90.6807C33.4271 90.5043 33.4778 90.3189 33.4778 90.1243V89.4675C33.4474 89.504 33.3805 89.5374 33.2771 89.5678C33.1758 89.5962 33.0582 89.6216 32.9244 89.6439C32.7927 89.6641 32.6639 89.6824 32.5383 89.6986C32.4146 89.7128 32.3143 89.7249 32.2373 89.7351C32.0508 89.7594 31.8764 89.7989 31.7143 89.8537C31.5541 89.9064 31.4244 89.9864 31.3251 90.0939C31.2278 90.1993 31.1791 90.3432 31.1791 90.5256C31.1791 90.7749 31.2714 90.9635 31.4558 91.0912C31.6423 91.2168 31.8785 91.2797 32.1643 91.2797ZM35.3338 91.8148V87.1445H36.0271V87.8743H36.0879C36.1852 87.6249 36.3423 87.4314 36.5592 87.2935C36.7761 87.1536 37.0366 87.0837 37.3406 87.0837C37.6487 87.0837 37.9051 87.1536 38.1099 87.2935C38.3166 87.4314 38.4778 87.6249 38.5933 87.8743H38.642C38.7616 87.633 38.941 87.4415 39.1801 87.2996C39.4193 87.1557 39.7062 87.0837 40.0406 87.0837C40.4582 87.0837 40.7998 87.2145 41.0653 87.4759C41.3308 87.7354 41.4636 88.1398 41.4636 88.6891V91.8148H40.746V88.6891C40.746 88.3445 40.6518 88.0982 40.4633 87.9503C40.2747 87.8023 40.0528 87.7283 39.7974 87.7283C39.469 87.7283 39.2146 87.8276 39.0342 88.0263C38.8538 88.2229 38.7636 88.4722 38.7636 88.7743V91.8148H38.0339V88.6162C38.0339 88.3506 37.9477 88.1368 37.7754 87.9746C37.6031 87.8104 37.3812 87.7283 37.1095 87.7283C36.923 87.7283 36.7487 87.778 36.5866 87.8773C36.4264 87.9766 36.2967 88.1145 36.1974 88.2908C36.1001 88.4651 36.0514 88.6668 36.0514 88.8959V91.8148H35.3338ZM42.6044 93.5662V87.1445H43.2976V87.8864H43.3827C43.4354 87.8053 43.5084 87.702 43.6017 87.5763C43.6969 87.4486 43.8327 87.3351 44.0091 87.2357C44.1875 87.1344 44.4287 87.0837 44.7327 87.0837C45.126 87.0837 45.4726 87.182 45.7726 87.3786C46.0726 87.5753 46.3067 87.854 46.475 88.2148C46.6432 88.5756 46.7274 89.0013 46.7274 89.4918C46.7274 89.9864 46.6432 90.4152 46.475 90.778C46.3067 91.1388 46.0736 91.4185 45.7757 91.6172C45.4777 91.8138 45.1341 91.9121 44.7449 91.9121C44.4449 91.9121 44.2047 91.8625 44.0243 91.7631C43.8439 91.6618 43.705 91.5473 43.6077 91.4195C43.5104 91.2898 43.4354 91.1824 43.3827 91.0972H43.3219V93.5662H42.6044ZM43.3098 89.4797C43.3098 89.8324 43.3615 90.1435 43.4648 90.4131C43.5682 90.6807 43.7192 90.8905 43.9179 91.0425C44.1165 91.1925 44.3598 91.2675 44.6476 91.2675C44.9476 91.2675 45.198 91.1885 45.3986 91.0304C45.6013 90.8702 45.7534 90.6554 45.8547 90.3858C45.9581 90.1141 46.0098 89.8121 46.0098 89.4797C46.0098 89.1513 45.9591 88.8553 45.8578 88.5918C45.7584 88.3263 45.6074 88.1165 45.4047 87.9624C45.204 87.8064 44.9517 87.7283 44.6476 87.7283C44.3557 87.7283 44.1104 87.8023 43.9118 87.9503C43.7131 88.0962 43.5631 88.301 43.4618 88.5645C43.3604 88.826 43.3098 89.131 43.3098 89.4797ZM50.594 89.9054V87.1445H51.3115V91.8148H50.594V91.0243H50.5453C50.4359 91.2614 50.2656 91.4631 50.0345 91.6293C49.8034 91.7935 49.5115 91.8756 49.1588 91.8756C48.8669 91.8756 48.6075 91.8118 48.3804 91.6841C48.1534 91.5543 47.975 91.3597 47.8453 91.1003C47.7156 90.8388 47.6507 90.5094 47.6507 90.1121V87.1445H48.3683V90.0635C48.3683 90.404 48.4635 90.6756 48.6541 90.8783C48.8467 91.081 49.0919 91.1824 49.3899 91.1824C49.5683 91.1824 49.7497 91.1368 49.9342 91.0456C50.1207 90.9543 50.2767 90.8145 50.4024 90.626C50.5301 90.4374 50.594 90.1972 50.594 89.9054ZM55.7627 88.1905L55.1181 88.3729C55.0776 88.2655 55.0178 88.1611 54.9387 88.0597C54.8617 87.9564 54.7563 87.8712 54.6225 87.8043C54.4887 87.7374 54.3174 87.704 54.1086 87.704C53.8228 87.704 53.5846 87.7699 53.3941 87.9016C53.2056 88.0314 53.1113 88.1966 53.1113 88.3972C53.1113 88.5756 53.1762 88.7165 53.3059 88.8199C53.4357 88.9233 53.6384 89.0094 53.914 89.0783L54.6073 89.2486C55.0249 89.3499 55.336 89.505 55.5407 89.7138C55.7455 89.9206 55.8478 90.1871 55.8478 90.5135C55.8478 90.781 55.7708 91.0202 55.6168 91.231C55.4647 91.4418 55.2519 91.6081 54.9782 91.7297C54.7046 91.8513 54.3863 91.9121 54.0235 91.9121C53.5471 91.9121 53.1529 91.8087 52.8407 91.602C52.5286 91.3952 52.3309 91.0932 52.2478 90.6959L52.9289 90.5256C52.9938 90.777 53.1164 90.9655 53.2968 91.0912C53.4792 91.2168 53.7174 91.2797 54.0113 91.2797C54.3458 91.2797 54.6113 91.2087 54.808 91.0668C55.0066 90.9229 55.1059 90.7506 55.1059 90.5499C55.1059 90.3878 55.0492 90.252 54.9357 90.1425C54.8222 90.031 54.6478 89.9479 54.4127 89.8932L53.6343 89.7108C53.2066 89.6094 52.8924 89.4523 52.6917 89.2395C52.4931 89.0246 52.3938 88.756 52.3938 88.4337C52.3938 88.1702 52.4677 87.9371 52.6157 87.7344C52.7657 87.5317 52.9694 87.3726 53.2269 87.257C53.4863 87.1415 53.7803 87.0837 54.1086 87.0837C54.5708 87.0837 54.9336 87.1851 55.1972 87.3878C55.4627 87.5905 55.6512 87.858 55.7627 88.1905ZM59.3463 85.5878L61.195 90.8297H61.268L63.1166 85.5878H63.9072L61.6207 91.8148H60.8423L58.5558 85.5878H59.3463ZM65.5481 91.9243C65.2521 91.9243 64.9836 91.8685 64.7423 91.757C64.5011 91.6435 64.3096 91.4804 64.1677 91.2675C64.0258 91.0527 63.9548 90.7932 63.9548 90.4891C63.9548 90.2216 64.0075 90.0047 64.1129 89.8385C64.2183 89.6702 64.3592 89.5385 64.5356 89.4432C64.7119 89.3479 64.9065 89.277 65.1194 89.2303C65.3342 89.1817 65.5501 89.1432 65.767 89.1148C66.0508 89.0783 66.2809 89.051 66.4572 89.0327C66.6356 89.0124 66.7653 88.979 66.8464 88.9324C66.9295 88.8858 66.9711 88.8047 66.9711 88.6891V88.6648C66.9711 88.3648 66.889 88.1317 66.7248 87.9655C66.5626 87.7993 66.3163 87.7162 65.9859 87.7162C65.6434 87.7162 65.3748 87.7912 65.1802 87.9412C64.9856 88.0912 64.8488 88.2513 64.7697 88.4216L64.0886 88.1783C64.2102 87.8945 64.3724 87.6736 64.5751 87.5155C64.7798 87.3553 65.0028 87.2439 65.244 87.181C65.4873 87.1161 65.7265 87.0837 65.9616 87.0837C66.1116 87.0837 66.2839 87.102 66.4785 87.1384C66.6751 87.1729 66.8646 87.2449 67.0471 87.3543C67.2315 87.4638 67.3846 87.629 67.5062 87.8499C67.6278 88.0709 67.6886 88.3668 67.6886 88.7378V91.8148H66.9711V91.1824H66.9346C66.8859 91.2837 66.8048 91.3922 66.6913 91.5077C66.5778 91.6233 66.4268 91.7216 66.2383 91.8027C66.0498 91.8837 65.8197 91.9243 65.5481 91.9243ZM65.6575 91.2797C65.9413 91.2797 66.1805 91.2239 66.3751 91.1125C66.5717 91.001 66.7197 90.857 66.819 90.6807C66.9204 90.5043 66.9711 90.3189 66.9711 90.1243V89.4675C66.9407 89.504 66.8738 89.5374 66.7704 89.5678C66.669 89.5962 66.5515 89.6216 66.4177 89.6439C66.2859 89.6641 66.1572 89.6824 66.0315 89.6986C65.9079 89.7128 65.8075 89.7249 65.7305 89.7351C65.544 89.7594 65.3697 89.7989 65.2075 89.8537C65.0474 89.9064 64.9177 89.9864 64.8184 90.0939C64.7211 90.1993 64.6724 90.3432 64.6724 90.5256C64.6724 90.7749 64.7646 90.9635 64.9491 91.0912C65.1356 91.2168 65.3717 91.2797 65.6575 91.2797ZM69.5447 85.5878V91.8148H68.8271V85.5878H69.5447ZM72.6458 91.9121C72.1958 91.9121 71.8077 91.8128 71.4813 91.6141C71.157 91.4135 70.9066 91.1337 70.7303 90.7749C70.556 90.4141 70.4688 89.9945 70.4688 89.5162C70.4688 89.0378 70.556 88.6162 70.7303 88.2513C70.9066 87.8844 71.1519 87.5986 71.4661 87.3939C71.7823 87.1871 72.1512 87.0837 72.5729 87.0837C72.8161 87.0837 73.0563 87.1243 73.2935 87.2053C73.5306 87.2864 73.7465 87.4182 73.9411 87.6006C74.1357 87.781 74.2908 88.0202 74.4063 88.3182C74.5219 88.6162 74.5796 88.983 74.5796 89.4189V89.7229H70.9796V89.1026H73.8499C73.8499 88.8391 73.7972 88.604 73.6918 88.3972C73.5884 88.1905 73.4404 88.0273 73.2479 87.9077C73.0573 87.7881 72.8323 87.7283 72.5729 87.7283C72.2871 87.7283 72.0398 87.7993 71.831 87.9412C71.6242 88.081 71.4651 88.2635 71.3536 88.4885C71.2421 88.7135 71.1864 88.9547 71.1864 89.2121V89.6256C71.1864 89.9783 71.2472 90.2773 71.3688 90.5226C71.4925 90.7658 71.6637 90.9513 71.8827 91.079C72.1016 91.2047 72.356 91.2675 72.6458 91.2675C72.8344 91.2675 73.0046 91.2412 73.1567 91.1885C73.3107 91.1337 73.4435 91.0527 73.555 90.9452C73.6665 90.8358 73.7526 90.6999 73.8134 90.5378L74.5067 90.7324C74.4337 90.9675 74.311 91.1743 74.1388 91.3527C73.9665 91.529 73.7536 91.6668 73.5002 91.7662C73.2469 91.8635 72.9621 91.9121 72.6458 91.9121ZM76.2175 89.0053V91.8148H75.4999V87.1445H76.1932V87.8743H76.254C76.3635 87.6371 76.5297 87.4466 76.7527 87.3026C76.9756 87.1567 77.2635 87.0837 77.6162 87.0837C77.9324 87.0837 78.2091 87.1486 78.4462 87.2783C78.6834 87.406 78.8679 87.6006 78.9996 87.8621C79.1314 88.1216 79.1973 88.4499 79.1973 88.8472V91.8148H78.4797V88.8959C78.4797 88.529 78.3844 88.2432 78.1939 88.0384C78.0033 87.8317 77.7418 87.7283 77.4094 87.7283C77.1804 87.7283 76.9756 87.778 76.7952 87.8773C76.6168 87.9766 76.476 88.1216 76.3726 88.3121C76.2692 88.5026 76.2175 88.7337 76.2175 89.0053ZM82.2346 91.9121C81.7967 91.9121 81.4197 91.8087 81.1035 91.602C80.7873 91.3952 80.544 91.1104 80.3737 90.7476C80.2035 90.3847 80.1183 89.9702 80.1183 89.504C80.1183 89.0297 80.2055 88.6111 80.3798 88.2482C80.5562 87.8834 80.8014 87.5986 81.1156 87.3939C81.4319 87.1871 81.8008 87.0837 82.2224 87.0837C82.5508 87.0837 82.8467 87.1445 83.1102 87.2661C83.3738 87.3878 83.5896 87.558 83.7579 87.777C83.9261 87.9959 84.0305 88.2513 84.0711 88.5432H83.3535C83.2988 88.3303 83.1771 88.1418 82.9886 87.9776C82.8021 87.8114 82.5508 87.7283 82.2346 87.7283C81.9548 87.7283 81.7096 87.8013 81.4987 87.9472C81.29 88.0912 81.1268 88.2949 81.0092 88.5584C80.8937 88.8199 80.8359 89.127 80.8359 89.4797C80.8359 89.8405 80.8927 90.1547 81.0062 90.4222C81.1217 90.6898 81.2839 90.8976 81.4927 91.0456C81.7035 91.1935 81.9508 91.2675 82.2346 91.2675C82.421 91.2675 82.5903 91.2351 82.7423 91.1702C82.8944 91.1054 83.0231 91.0121 83.1285 90.8905C83.2339 90.7689 83.3089 90.6229 83.3535 90.4527H84.0711C84.0305 90.7283 83.9302 90.9766 83.77 91.1976C83.6119 91.4165 83.4021 91.5908 83.1406 91.7206C82.8812 91.8483 82.5792 91.9121 82.2346 91.9121ZM81.894 91.7905H82.49L82.4413 92.0337C82.5994 92.0581 82.7444 92.1239 82.8761 92.2314C83.0079 92.3408 83.0738 92.5141 83.0738 92.7513C83.0738 93.0128 82.9653 93.2256 82.7484 93.3898C82.5336 93.556 82.2163 93.6392 81.7967 93.6392L81.7724 93.1648C81.9609 93.1648 82.117 93.1344 82.2406 93.0736C82.3663 93.0148 82.4292 92.9155 82.4292 92.7756C82.4292 92.6358 82.3775 92.5405 82.2741 92.4898C82.1707 92.4391 82.0035 92.4047 81.7724 92.3864L81.894 91.7905ZM86.3231 91.9243C86.0272 91.9243 85.7586 91.8685 85.5174 91.757C85.2762 91.6435 85.0846 91.4804 84.9427 91.2675C84.8008 91.0527 84.7299 90.7932 84.7299 90.4891C84.7299 90.2216 84.7826 90.0047 84.888 89.8385C84.9934 89.6702 85.1343 89.5385 85.3106 89.4432C85.487 89.3479 85.6816 89.277 85.8944 89.2303C86.1093 89.1817 86.3252 89.1432 86.542 89.1148C86.8258 89.0783 87.0559 89.051 87.2323 89.0327C87.4106 89.0124 87.5404 88.979 87.6214 88.9324C87.7046 88.8858 87.7461 88.8047 87.7461 88.6891V88.6648C87.7461 88.3648 87.664 88.1317 87.4998 87.9655C87.3377 87.7993 87.0914 87.7162 86.761 87.7162C86.4184 87.7162 86.1498 87.7912 85.9552 87.9412C85.7606 88.0912 85.6238 88.2513 85.5447 88.4216L84.8637 88.1783C84.9853 87.8945 85.1474 87.6736 85.3502 87.5155C85.5549 87.3553 85.7779 87.2439 86.0191 87.181C86.2623 87.1161 86.5015 87.0837 86.7366 87.0837C86.8866 87.0837 87.0589 87.102 87.2535 87.1384C87.4502 87.1729 87.6397 87.2449 87.8221 87.3543C88.0066 87.4638 88.1596 87.629 88.2812 87.8499C88.4029 88.0709 88.4637 88.3668 88.4637 88.7378V91.8148H87.7461V91.1824H87.7096C87.661 91.2837 87.5799 91.3922 87.4664 91.5077C87.3529 91.6233 87.2018 91.7216 87.0133 91.8027C86.8248 91.8837 86.5948 91.9243 86.3231 91.9243ZM86.4326 91.2797C86.7164 91.2797 86.9556 91.2239 87.1502 91.1125C87.3468 91.001 87.4948 90.857 87.5941 90.6807C87.6954 90.5043 87.7461 90.3189 87.7461 90.1243V89.4675C87.7157 89.504 87.6488 89.5374 87.5454 89.5678C87.4441 89.5962 87.3265 89.6216 87.1927 89.6439C87.061 89.6641 86.9323 89.6824 86.8066 89.6986C86.6829 89.7128 86.5826 89.7249 86.5056 89.7351C86.3191 89.7594 86.1447 89.7989 85.9826 89.8537C85.8225 89.9064 85.6927 89.9864 85.5934 90.0939C85.4961 90.1993 85.4474 90.3432 85.4474 90.5256C85.4474 90.7749 85.5397 90.9635 85.7241 91.0912C85.9106 91.2168 86.1468 91.2797 86.4326 91.2797ZM90.6724 90.9635L90.6238 91.2918C90.5893 91.5229 90.5366 91.7702 90.4657 92.0337C90.3968 92.2973 90.3248 92.5456 90.2498 92.7787C90.1748 93.0118 90.113 93.1973 90.0643 93.3351H89.517C89.5434 93.2054 89.5778 93.0341 89.6204 92.8212C89.663 92.6084 89.7055 92.3702 89.7481 92.1067C89.7927 91.8452 89.8292 91.5777 89.8576 91.304L89.8941 90.9635H90.6724ZM94.1648 91.8148V85.5878H96.3419C96.7757 85.5878 97.1334 85.6628 97.4152 85.8128C97.697 85.9607 97.9067 86.1604 98.0446 86.4118C98.1824 86.6611 98.2513 86.9378 98.2513 87.2418C98.2513 87.5094 98.2037 87.7303 98.1084 87.9047C98.0152 88.079 97.8915 88.2168 97.7375 88.3182C97.5855 88.4195 97.4203 88.4945 97.2419 88.5432V88.604C97.4324 88.6162 97.624 88.683 97.8165 88.8047C98.0091 88.9263 98.1703 89.1006 98.3 89.3276C98.4297 89.5547 98.4946 89.8324 98.4946 90.1608C98.4946 90.4729 98.4236 90.7537 98.2818 91.003C98.1399 91.2523 97.9159 91.45 97.6098 91.5959C97.3037 91.7418 96.9054 91.8148 96.4149 91.8148H94.1648ZM94.9189 91.1459H96.4149C96.9074 91.1459 97.2571 91.0506 97.4638 90.8601C97.6726 90.6675 97.777 90.4344 97.777 90.1608C97.777 89.9499 97.7233 89.7553 97.6159 89.577C97.5084 89.3966 97.3554 89.2526 97.1567 89.1452C96.9581 89.0358 96.723 88.981 96.4513 88.981H94.9189V91.1459ZM94.9189 88.3243H96.3176C96.5446 88.3243 96.7493 88.2797 96.9317 88.1905C97.1162 88.1013 97.2622 87.9756 97.3696 87.8134C97.479 87.6513 97.5338 87.4607 97.5338 87.2418C97.5338 86.9682 97.4385 86.7361 97.248 86.5455C97.0574 86.353 96.7554 86.2567 96.3419 86.2567H94.9189V88.3243ZM100.839 91.9243C100.543 91.9243 100.275 91.8685 100.034 91.757C99.7924 91.6435 99.6009 91.4804 99.459 91.2675C99.3171 91.0527 99.2462 90.7932 99.2462 90.4891C99.2462 90.2216 99.2989 90.0047 99.4043 89.8385C99.5097 89.6702 99.6506 89.5385 99.8269 89.4432C100.003 89.3479 100.198 89.277 100.411 89.2303C100.626 89.1817 100.841 89.1432 101.058 89.1148C101.342 89.0783 101.572 89.051 101.749 89.0327C101.927 89.0124 102.057 88.979 102.138 88.9324C102.221 88.8858 102.262 88.8047 102.262 88.6891V88.6648C102.262 88.3648 102.18 88.1317 102.016 87.9655C101.854 87.7993 101.608 87.7162 101.277 87.7162C100.935 87.7162 100.666 87.7912 100.472 87.9412C100.277 88.0912 100.14 88.2513 100.061 88.4216L99.3799 88.1783C99.5016 87.8945 99.6637 87.6736 99.8664 87.5155C100.071 87.3553 100.294 87.2439 100.535 87.181C100.779 87.1161 101.018 87.0837 101.253 87.0837C101.403 87.0837 101.575 87.102 101.77 87.1384C101.966 87.1729 102.156 87.2449 102.338 87.3543C102.523 87.4638 102.676 87.629 102.798 87.8499C102.919 88.0709 102.98 88.3668 102.98 88.7378V91.8148H102.262V91.1824H102.226C102.177 91.2837 102.096 91.3922 101.983 91.5077C101.869 91.6233 101.718 91.7216 101.53 91.8027C101.341 91.8837 101.111 91.9243 100.839 91.9243ZM100.949 91.2797C101.233 91.2797 101.472 91.2239 101.666 91.1125C101.863 91.001 102.011 90.857 102.11 90.6807C102.212 90.5043 102.262 90.3189 102.262 90.1243V89.4675C102.232 89.504 102.165 89.5374 102.062 89.5678C101.96 89.5962 101.843 89.6216 101.709 89.6439C101.577 89.6641 101.449 89.6824 101.323 89.6986C101.199 89.7128 101.099 89.7249 101.022 89.7351C100.835 89.7594 100.661 89.7989 100.499 89.8537C100.339 89.9064 100.209 89.9864 100.11 90.0939C100.012 90.1993 99.9637 90.3432 99.9637 90.5256C99.9637 90.7749 100.056 90.9635 100.24 91.0912C100.427 91.2168 100.663 91.2797 100.949 91.2797ZM104.836 89.0053V91.8148H104.118V85.5878H104.836V87.8743H104.897C105.006 87.633 105.17 87.4415 105.389 87.2996C105.61 87.1557 105.904 87.0837 106.271 87.0837C106.589 87.0837 106.868 87.1476 107.107 87.2753C107.347 87.4009 107.532 87.5945 107.664 87.856C107.798 88.1155 107.864 88.4459 107.864 88.8472V91.8148H107.147V88.8959C107.147 88.5249 107.051 88.2381 106.858 88.0354C106.667 87.8307 106.403 87.7283 106.064 87.7283C105.829 87.7283 105.618 87.778 105.432 87.8773C105.248 87.9766 105.102 88.1216 104.994 88.3121C104.889 88.5026 104.836 88.7337 104.836 89.0053ZM109.006 91.8148V87.1445H109.723V91.8148H109.006ZM109.371 86.3661C109.231 86.3661 109.11 86.3185 109.009 86.2232C108.91 86.128 108.86 86.0134 108.86 85.8797C108.86 85.7459 108.91 85.6313 109.009 85.5361C109.11 85.4408 109.231 85.3932 109.371 85.3932C109.511 85.3932 109.63 85.4408 109.73 85.5361C109.831 85.6313 109.882 85.7459 109.882 85.8797C109.882 86.0134 109.831 86.128 109.73 86.2232C109.63 86.3185 109.511 86.3661 109.371 86.3661ZM112.241 91.9243C111.945 91.9243 111.676 91.8685 111.435 91.757C111.194 91.6435 111.002 91.4804 110.86 91.2675C110.719 91.0527 110.648 90.7932 110.648 90.4891C110.648 90.2216 110.7 90.0047 110.806 89.8385C110.911 89.6702 111.052 89.5385 111.228 89.4432C111.405 89.3479 111.599 89.277 111.812 89.2303C112.027 89.1817 112.243 89.1432 112.46 89.1148C112.744 89.0783 112.974 89.051 113.15 89.0327C113.328 89.0124 113.458 88.979 113.539 88.9324C113.622 88.8858 113.664 88.8047 113.664 88.6891V88.6648C113.664 88.3648 113.582 88.1317 113.418 87.9655C113.255 87.7993 113.009 87.7162 112.679 87.7162C112.336 87.7162 112.068 87.7912 111.873 87.9412C111.678 88.0912 111.542 88.2513 111.462 88.4216L110.781 88.1783C110.903 87.8945 111.065 87.6736 111.268 87.5155C111.473 87.3553 111.696 87.2439 111.937 87.181C112.18 87.1161 112.419 87.0837 112.654 87.0837C112.804 87.0837 112.977 87.102 113.171 87.1384C113.368 87.1729 113.557 87.2449 113.74 87.3543C113.924 87.4638 114.077 87.629 114.199 87.8499C114.321 88.0709 114.381 88.3668 114.381 88.7378V91.8148H113.664V91.1824H113.627C113.579 91.2837 113.498 91.3922 113.384 91.5077C113.271 91.6233 113.12 91.7216 112.931 91.8027C112.743 91.8837 112.512 91.9243 112.241 91.9243ZM112.35 91.2797C112.634 91.2797 112.873 91.2239 113.068 91.1125C113.265 91.001 113.412 90.857 113.512 90.6807C113.613 90.5043 113.664 90.3189 113.664 90.1243V89.4675C113.633 89.504 113.567 89.5374 113.463 89.5678C113.362 89.5962 113.244 89.6216 113.11 89.6439C112.979 89.6641 112.85 89.6824 112.724 89.6986C112.601 89.7128 112.5 89.7249 112.423 89.7351C112.237 89.7594 112.062 89.7989 111.9 89.8537C111.74 89.9064 111.61 89.9864 111.511 90.0939C111.414 90.1993 111.365 90.3432 111.365 90.5256C111.365 90.7749 111.457 90.9635 111.642 91.0912C111.828 91.2168 112.065 91.2797 112.35 91.2797Z" fill="#646464"/>
</svg>
